<svg width="38" height="34" viewBox="0 0 38 34" fill="none" xmlns="http://www.w3.org/2000/svg">
<path d="M2.33333 27.4166H19.2083C20.0417 30.9583 23.375 33.6666 27.3333 33.6666C31.2917 33.6666 34.4167 30.9583 35.4583 27.4166H35.6667C36.9167 27.4166 37.75 26.5833 37.75 25.3333C37.75 24.0833 36.9167 23.25 35.6667 23.25H35.4583C34.625 19.7083 31.2917 17 27.3333 17C23.375 17 20.25 19.7083 19.2083 23.25H2.33333C1.08333 23.25 0.25 24.0833 0.25 25.3333C0.25 26.5833 1.08333 27.4166 2.33333 27.4166ZM27.3333 21.1666C29.625 21.1666 31.5 23.0416 31.5 25.3333C31.5 27.625 29.625 29.5 27.3333 29.5C25.0417 29.5 23.1667 27.625 23.1667 25.3333C23.1667 23.0416 25.0417 21.1666 27.3333 21.1666ZM2.33333 10.75H2.54167C3.375 14.2916 6.70833 17 10.6667 17C14.625 17 17.75 14.2916 18.7917 10.75H35.6667C36.9167 10.75 37.75 9.91665 37.75 8.66665C37.75 7.41665 36.9167 6.58331 35.6667 6.58331H18.7917C17.9583 3.04165 14.625 0.333313 10.6667 0.333313C6.70833 0.333313 3.58333 3.04165 2.54167 6.58331H2.33333C1.08333 6.58331 0.25 7.41665 0.25 8.66665C0.25 9.91665 1.08333 10.75 2.33333 10.75ZM10.6667 4.49998C12.9583 4.49998 14.8333 6.37498 14.8333 8.66665C14.8333 10.9583 12.9583 12.8333 10.6667 12.8333C8.375 12.8333 6.5 10.9583 6.5 8.66665C6.5 6.37498 8.375 4.49998 10.6667 4.49998Z" fill="black"/>
</svg>
