<svg width="50" height="50" viewBox="0 0 50 50" fill="none" xmlns="http://www.w3.org/2000/svg">
<path d="M25 2C29.9015 2 33.875 5.97347 33.875 10.875C33.875 15.7765 29.9015 19.75 25 19.75C20.0985 19.75 16.125 15.7765 16.125 10.875C16.125 5.97347 20.0985 2 25 2Z" stroke="black"/>
<path d="M24.9978 23.9376H25.0046C30.0354 23.8943 34.941 25.5058 38.9656 28.5245L39.2654 28.1251L38.9656 28.5255L38.9763 28.5333C39.8561 29.1572 40.6818 29.8543 41.4431 30.6183L41.4451 30.6212C44.3991 33.5495 46.5023 37.2186 47.5378 41.2365L47.7302 42.045C47.8732 42.744 47.8606 43.466 47.6921 44.1593C47.5232 44.8548 47.2017 45.5041 46.7517 46.0607L46.7507 46.0626C46.282 46.6481 45.6867 47.1209 45.0105 47.4454C44.3345 47.7698 43.5942 47.938 42.8445 47.9376H7.15015C6.40229 47.9471 5.66165 47.7884 4.98315 47.4738C4.30466 47.1591 3.70513 46.6962 3.22925 46.1193C2.77227 45.5567 2.44793 44.8984 2.27905 44.1935C2.10994 43.4875 2.10046 42.7517 2.25366 42.0421C3.20576 37.7095 5.3883 33.7432 8.53882 30.6202C12.9278 26.3078 18.8447 23.9061 24.9978 23.9376Z" stroke="black"/>
</svg>
